<svg width="20" height="20" viewBox="0 0 16 16" fill="none" xmlns="http://www.w3.org/2000/svg">
<path d="M14.7355 4.09599C14.0402 2.90366 13.0967 1.95943 11.9036 1.26488C10.7113 0.570323 9.41006 0.222656 7.99995 0.222656C6.58984 0.222656 5.28861 0.570323 4.0955 1.26488C2.90317 1.95943 1.95895 2.90366 1.26439 4.09599C0.569835 5.28832 0.222168 6.59032 0.222168 8.00043C0.222168 9.41055 0.569057 10.7125 1.26439 11.9049C1.95972 13.098 2.90317 14.0414 4.09628 14.736C5.28861 15.4305 6.58984 15.7782 7.99995 15.7782C9.41006 15.7782 10.7113 15.4305 11.9044 14.736C13.0967 14.0414 14.0409 13.098 14.7363 11.9049C15.4308 10.7125 15.7777 9.41055 15.7777 8.00043C15.7777 6.59032 15.4308 5.28832 14.7355 4.09599ZM7.99995 1.51377C9.5555 1.51377 10.9337 2.01155 12.1377 3.00632C11.4222 3.91943 10.3597 4.67077 8.94884 5.26188C8.1695 3.85177 7.32483 2.67421 6.4125 1.73077C6.94295 1.5861 7.47028 1.51377 7.99995 1.51377ZM2.95217 3.95599C3.53861 3.21943 4.24017 2.64466 5.06072 2.22932C6.00339 3.16343 6.86906 4.32932 7.6585 5.72932C6.10295 6.19599 4.45872 6.42932 2.72661 6.42932C2.28095 6.42932 1.94417 6.41921 1.7155 6.39821C1.95428 5.5061 2.3665 4.69255 2.95217 3.95599ZM1.51328 8.00043C1.51328 7.95843 1.51561 7.9071 1.52106 7.84488C1.5265 7.78266 1.52883 7.73132 1.52883 7.68932C1.72639 7.70021 2.02739 7.70488 2.43183 7.70488C4.50539 7.70488 6.43428 7.41944 8.21772 6.84932C8.36317 7.13943 8.51406 7.4661 8.66883 7.82932C7.64217 8.05721 6.58906 8.61177 5.51028 9.49377C4.4315 10.3758 3.64439 11.3037 3.14661 12.2782C2.05772 11.0439 1.51328 9.61821 1.51328 8.00043ZM7.99995 14.4871C6.52683 14.4871 5.20461 14.0305 4.0325 13.119C4.49995 12.1958 5.21783 11.313 6.18772 10.4738C7.15684 9.63377 8.11895 9.11032 9.07328 8.90266C9.67372 10.5617 10.0789 12.2774 10.2866 14.0515C9.52906 14.3417 8.76684 14.4871 7.99995 14.4871ZM13.5066 11.4071C12.9886 12.2362 12.3197 12.916 11.4999 13.4457C11.3133 11.8279 10.9555 10.2513 10.4274 8.71599C11.1523 8.66466 11.8002 8.63821 12.3718 8.63821C12.9933 8.63821 13.6832 8.66466 14.4399 8.71599C14.3357 9.68044 14.0246 10.5772 13.5066 11.4071ZM12.5422 7.51821C11.6399 7.51821 10.8054 7.55477 10.0377 7.6271C9.84017 7.11921 9.66439 6.69921 9.50883 6.3671C11.1157 5.66243 12.2559 4.80688 12.9303 3.80043C13.8636 4.90021 14.3723 6.15477 14.4547 7.56488C13.8232 7.53377 13.1854 7.51821 12.5422 7.51821Z" fill="#F3EFE4"/>
</svg>
