<svg width="20" height="20" viewBox="0 0 16 16" fill="none" xmlns="http://www.w3.org/2000/svg">
<path d="M15.4913 4.72364C15.4555 3.91011 15.3239 3.35081 15.1355 2.86618C14.941 2.35175 14.6419 1.89118 14.2501 1.5083C13.8672 1.11947 13.4036 0.817333 12.8951 0.625955C12.4077 0.437498 11.8513 0.30594 11.0378 0.270071C10.2182 0.231164 9.95797 0.222168 7.87922 0.222168C5.80047 0.222168 5.54027 0.231164 4.7237 0.267033C3.91017 0.302902 3.35087 0.434577 2.86635 0.622917C2.35181 0.817333 1.89124 1.11643 1.50836 1.5083C1.11953 1.89118 0.817511 2.35478 0.626016 2.86326C0.437559 3.35081 0.306001 3.90707 0.270132 4.7206C0.231225 5.54021 0.222229 5.80041 0.222229 7.87916C0.222229 9.95791 0.231225 10.2181 0.267094 11.0347C0.302963 11.8482 0.434638 12.4075 0.623095 12.8921C0.817511 13.4066 1.11953 13.8671 1.50836 14.25C1.89124 14.6388 2.35484 14.941 2.86332 15.1324C3.35087 15.3208 3.90713 15.4524 4.72078 15.4882C5.53723 15.5242 5.79755 15.5331 7.8763 15.5331C9.95505 15.5331 10.2152 15.5242 11.0318 15.4882C11.8453 15.4524 12.4046 15.3208 12.8892 15.1324C13.9181 14.7345 14.7317 13.921 15.1295 12.8921C15.3178 12.4046 15.4495 11.8482 15.4854 11.0347C15.5213 10.2181 15.5303 9.95791 15.5303 7.87916C15.5303 5.80041 15.5272 5.54021 15.4913 4.72364ZM14.1126 10.9749C14.0796 11.7226 13.954 12.1264 13.8493 12.3956C13.5921 13.0626 13.0627 13.592 12.3956 13.8493C12.1265 13.954 11.7198 14.0796 10.9749 14.1124C10.1673 14.1484 9.92514 14.1572 7.88226 14.1572C5.83937 14.1572 5.59413 14.1484 4.78948 14.1124C4.04173 14.0796 3.63794 13.954 3.36875 13.8493C3.03682 13.7266 2.73468 13.5322 2.48944 13.2779C2.2352 13.0297 2.04079 12.7306 1.91811 12.3986C1.81342 12.1294 1.68783 11.7226 1.65499 10.9779C1.61901 10.1703 1.61013 9.928 1.61013 7.88512C1.61013 5.84223 1.61901 5.59699 1.65499 4.79246C1.68783 4.04471 1.81342 3.64092 1.91811 3.37173C2.04079 3.03968 2.2352 2.73766 2.49248 2.4923C2.74064 2.23806 3.03974 2.04365 3.37179 1.92109C3.64098 1.8164 4.0478 1.6908 4.79252 1.65785C5.60009 1.62199 5.84241 1.61299 7.88518 1.61299C9.9311 1.61299 10.1733 1.62199 10.978 1.65785C11.7257 1.6908 12.1295 1.8164 12.3987 1.92109C12.7306 2.04365 13.0328 2.23806 13.278 2.4923C13.5322 2.74058 13.7266 3.03968 13.8493 3.37173C13.954 3.64092 14.0796 4.04763 14.1126 4.79246C14.1484 5.60003 14.1574 5.84223 14.1574 7.88512C14.1574 9.928 14.1484 10.1673 14.1126 10.9749Z" fill="#F3EFE4"/>
<path d="M7.87849 3.94629C5.70709 3.94629 3.94531 5.70795 3.94531 7.87947C3.94531 10.051 5.70709 11.8127 7.87849 11.8127C10.05 11.8127 11.8117 10.051 11.8117 7.87947C11.8117 5.70795 10.05 3.94629 7.87849 3.94629ZM7.87849 10.4308C6.4698 10.4308 5.32714 9.28828 5.32714 7.87947C5.32714 6.47066 6.4698 5.32811 7.87849 5.32811C9.28731 5.32811 10.4299 6.47066 10.4299 7.87947C10.4299 9.28828 9.28731 10.4308 7.87849 10.4308Z" fill="#F3EFE4"/>
<path d="M12.8856 3.79011C12.8856 4.29709 12.4745 4.70815 11.9674 4.70815C11.4604 4.70815 11.0494 4.29709 11.0494 3.79011C11.0494 3.28302 11.4604 2.87207 11.9674 2.87207C12.4745 2.87207 12.8856 3.28302 12.8856 3.79011Z" fill="#F3EFE4"/>
</svg>
